<?xml version="1.0" standalone="yes"?>
<svg xmlns="http://www.w3.org/2000/svg" width="341" height="380">
<path style="fill:#fefefe; stroke:none;" d="M0 0L0 380L341 380L341 0L0 0z"/>
<path style="fill:#d48c5a; stroke:none;" d="M111 24L111 51L112.603 60.9722L126 62L126 61L112 61C112 50.3512 115.111 33.7978 111 24z"/>
<path style="fill:#2c2e2e; stroke:none;" d="M112 24L112 61C115.721 61 122.517 59.7242 125.397 62.6034C128.859 66.0663 128.859 89.9337 125.397 93.3966C120.341 98.452 99.9459 95 93 95L93 81L56 81L56 117L70 117L70 165L55 165L55 202L92 202L92 187L127 187L127 224L112 224L112 261L149 261L149 247L198 247L198 261L235 261L235 224L219 224L219 187L258 187L258 202L295 202L295 165L278 165L278 131L279.603 118.603L295 117L295 81L258 81L258 95L218 95L218 61L234 61L234 24L197 24L197 39L149 39L149 24L112 24z"/>
<path style="fill:#378cb9; stroke:none;" d="M118 29L118 30L143 30L118 29M203 29L203 30L228 30L203 29z"/>
<path style="fill:#fefefe; stroke:none;" d="M117 30L118 56L120 56L121 34L143 34L143 30L117 30z"/>
<path style="fill:#d48c5a; stroke:none;" d="M202.333 30.6667L202.667 31.3333L202.333 30.6667z"/>
<path style="fill:#fefefe; stroke:none;" d="M203 30L203 32L225 32C225 38.232 222.308 52.31 228 56L228 30L203 30z"/>
<path style="fill:#d48c5a; stroke:none;" d="M228 30L228 55L229 55L228 30z"/>
<path style="fill:#378cb9; stroke:none;" d="M202 32L202 39L218 39L218 56L219 56C219 40.7622 218.788 38 203 38L202 32z"/>
<path style="fill:#36ddde; stroke:none;" d="M203 32L203 38C218.343 38 219 41.2645 219 56L225 56L225 32L203 32M121 34L121 56L126 56L126 38L143 38L143 34L121 34z"/>
<path style="fill:#378cb9; stroke:none;" d="M126 38L126 55L127 55L127 39L143 39L126 38z"/>
<path style="fill:#d48c5a; stroke:none;" d="M149 38L149 39L196 39C183.823 33.8905 162.265 38 149 38z"/>
<path style="fill:#378cb9; stroke:none;" d="M196 38L197 39L196 38z"/>
<path style="fill:#36ddde; stroke:none;" d="M132 44L132 56L143 56L143 44L132 44z"/>
<path style="fill:#fefefe; stroke:none;" d="M149 44L149 51L197 51C196.728 42.703 190.761 44 184 44L149 44z"/>
<path style="fill:#d48c5a; stroke:none;" d="M196 44L197 45L196 44z"/>
<path style="fill:#378cb9; stroke:none;" d="M202 44L202 56L203 56L202 44z"/>
<path style="fill:#36ddde; stroke:none;" d="M203 44L203 56C215.904 55.99 215.904 44.01 203 44z"/>
<path style="fill:#378cb9; stroke:none;" d="M212 44L213 45L212 44z"/>
<path style="fill:#36ddde; stroke:none;" d="M149 51L149 62L139 62L139 95L162 95L162 119L186 119L186 95L207 95L207 62L197 62L197 51L149 51z"/>
<path style="fill:#d48c5a; stroke:none;" d="M117 55L118 56L117 55M120 55L121 56L120 55z"/>
<path style="fill:#378cb9; stroke:none;" d="M212 55L213 56L212 55z"/>
<path style="fill:#d48c5a; stroke:none;" d="M225 55L226 56L225 55z"/>
<path style="fill:#378cb9; stroke:none;" d="M228 55L229 56L228 55z"/>
<path style="fill:#d48c5a; stroke:none;" d="M132 61L132 62L139 62L132 61z"/>
<path style="fill:#378cb9; stroke:none;" d="M139 61L139 62L149 62L139 61M197 61L197 62L207 62L197 61z"/>
<path style="fill:#d48c5a; stroke:none;" d="M207 61L207 62L212 62L207 61z"/>
<path style="fill:#378cb9; stroke:none;" d="M212 61L213 62L212 61M218 61L219 62L218 61z"/>
<path style="fill:#d48c5a; stroke:none;" d="M219 61L219 62L234 62L219 61z"/>
<path style="fill:#378cb9; stroke:none;" d="M126 62L126 94L127 94L126 62z"/>
<path style="fill:#fefefe; stroke:none;" d="M132 62L132 95L139 95L139 62L132 62M207 62L207 95C217.271 94.1998 213 70.007 213 62L207 62z"/>
<path style="fill:#d48c5a; stroke:none;" d="M218 62L218 94L219 94L218 62M55 80L55 118L56 118C56 107.089 59.2113 90.0359 55 80z"/>
<path style="fill:#378cb9; stroke:none;" d="M56 80L56 81L93 81C83.2021 76.8887 66.6488 80 56 80z"/>
<path style="fill:#d48c5a; stroke:none;" d="M257 80L257 94L258 94L257 80z"/>
<path style="fill:#378cb9; stroke:none;" d="M258 80L258 81L295 81C285.202 76.8887 268.649 80 258 80z"/>
<path style="fill:#fefefe; stroke:none;" d="M61 86L61 112L65 112L65 90L87 90L87 86L61 86M263 86L263 90L285 90L285 112L289 112L289 86L263 86z"/>
<path style="fill:#378cb9; stroke:none;" d="M289 86L289 112L290 112L289 86M65 90L65 112L70 112L70 95L87 95L87 90L65 90M263 90L263 95L278 95L278 112L285 112L285 90L263 90z"/>
<path style="fill:#d48c5a; stroke:none;" d="M212 94L213 95L212 94z"/>
<path style="fill:#378cb9; stroke:none;" d="M218 94L219 95L218 94M257 94L258 95L257 94M76 100L76 112L87 112L87 100L76 100z"/>
<path style="fill:#d48c5a; stroke:none;" d="M93 100L93 101L126 101L93 100M132 100L132 101L139 101L132 100z"/>
<path style="fill:#378cb9; stroke:none;" d="M139 100L139 101L156 101L156 120L157 120L157 100L139 100M192 100L192 101L207 101L192 100z"/>
<path style="fill:#d48c5a; stroke:none;" d="M207 100L207 101L212 101L207 100z"/>
<path style="fill:#378cb9; stroke:none;" d="M212 100L213 101L212 100M218 100L219 101L218 100z"/>
<path style="fill:#d48c5a; stroke:none;" d="M218 107L219 107L219 101L257 101L257 107L255.682 100.603L228 100L219.603 101.026L218 107z"/>
<path style="fill:#378cb9; stroke:none;" d="M257 100L258 101L257 100M263 100L263 112L273 112L273 100L263 100z"/>
<path style="fill:#fefefe; stroke:none;" d="M93 101L93 108L126 108L126 101L93 101z"/>
<path style="fill:#378cb9; stroke:none;" d="M126 101L126 108L127 108L126 101z"/>
<path style="fill:#fefefe; stroke:none;" d="M132 101L132 108L139 108L139 101L132 101z"/>
<path style="fill:#36ddde; stroke:none;" d="M139 101L139 108L151 108L151 119L156 119L156 101L139 101M192 101L192 119L198 119L198 125L199 125L199 108L207 108L207 101L192 101z"/>
<path style="fill:#fefefe; stroke:none;" d="M207 101L207 108C211.89 107.619 212.845 105.724 213 101L207 101M219 101L219 108L257 108L257 101L219 101z"/>
<path style="fill:#d48c5a; stroke:none;" d="M212 107L213 108L212 107z"/>
<path style="fill:#378cb9; stroke:none;" d="M218 107L218 131L199 131L198 155L219 155L219 176L258 176L258 165L266 165L266 118L272 118L272 117L258 118L258 107C246.654 109.701 229.346 109.701 218 107M93 108L93 118L76.6034 118.029L75 130L75 164L76 164L76 118L83 118L83 165L92 165L92 176L127 176L127 155L151 155L151 131L126 131L126 108L93 108M132 108L132 125L156 126L156 125L151 125L151 108L132 108M199 108L199 125L213 125L213 108L199 108M56 117L56 118L70 118L56 117M279 117L279 118L295 118L279 117z"/>
<path style="fill:#fefefe; stroke:none;" d="M76 118L76 165L83 165L83 118L76 118M266 118L266 154C266 156.932 264.847 165.17 269.91 164.534C274.161 164 273 156.908 273 154L273 118L266 118z"/>
<path style="fill:#d48c5a; stroke:none;" d="M278 118L278 164L279 164C279 150.997 283.01 129.939 278 118z"/>
<path style="fill:#fefefe; stroke:none;" d="M151 119L151 125L156 125L156 119L151 119z"/>
<path style="fill:#d48c5a; stroke:none;" d="M162 119L163 120L162 119z"/>
<path style="fill:#fefefe; stroke:none;" d="M162 125L186 125L186 119C178.813 119 162.745 115.439 162 125M192 119L192 125L198 125L198 119L192 119z"/>
<path style="fill:#d48c5a; stroke:none;" d="M156 120L156 125L157 125L156 120z"/>
<path style="fill:#378cb9; stroke:none;" d="M163 125L163 126L186 126L163 125M192 125L192 126L198 126L192 125z"/>
<path style="fill:#fefefe; stroke:none;" d="M151 131L151 154L156 154L156 131L151 131z"/>
<path style="fill:#d48c5a; stroke:none;" d="M156 131L156 154L151 154L151 155C159.658 154.325 158.678 137.381 156 131z"/>
<path style="fill:#fefefe; stroke:none;" d="M162 131L162 154L186 154L186 131L162 131M192 131L192 154L198 154L198 131L192 131z"/>
<path style="fill:#36ddde; stroke:none;" d="M198 131L198 154L199 154L198 131z"/>
<path style="fill:#378cb9; stroke:none;" d="M156 154L157 155L156 154M162 154L163 155L162 154z"/>
<path style="fill:#d48c5a; stroke:none;" d="M163 154L163 155L186 155L163 154M192 154L192 155L198 155L192 154z"/>
<path style="fill:#378cb9; stroke:none;" d="M133 160L132 181L133 181L133 176L139 176L139 166L151 166L151 160L133 160z"/>
<path style="fill:#fefefe; stroke:none;" d="M151 160L151 166L156 166L156 160L151 160z"/>
<path style="fill:#378cb9; stroke:none;" d="M156 160L157 161L156 160z"/>
<path style="fill:#d48c5a; stroke:none;" d="M162 160L163 161L162 160z"/>
<path style="fill:#fefefe; stroke:none;" d="M162 166L186 166L186 160C178.813 160 162.745 156.439 162 166M192 160L192 166L198 166L198 160L192 160z"/>
<path style="fill:#378cb9; stroke:none;" d="M198 160L199 166L207 166L207 176L214 176L214 160L198 160z"/>
<path style="fill:#d48c5a; stroke:none;" d="M156 161L156 166L157 166L156 161z"/>
<path style="fill:#36ddde; stroke:none;" d="M198 161L198 166L192 166L192 181L207 181L207 166L199 166L198 161z"/>
<path style="fill:#d48c5a; stroke:none;" d="M266 164L267 165L266 164M272 164L273 165L272 164z"/>
<path style="fill:#378cb9; stroke:none;" d="M278 164L279 165L278 164z"/>
<path style="fill:#36ddde; stroke:none;" d="M139 166L139 181L156 181L156 166L139 166z"/>
<path style="fill:#378cb9; stroke:none;" d="M156 166L156 181L139 181L139 182L157 182L156 166z"/>
<path style="fill:#d48c5a; stroke:none;" d="M162 166L163 167L162 166z"/>
<path style="fill:#36ddde; stroke:none;" d="M162 187L139 187L139 224L150 224L150 235L197 235L197 224L207 224L207 187L186 187L186 166C181.14 166 166.253 163.532 163.028 167.603C159.978 171.454 162 182.25 162 187z"/>
<path style="fill:#d48c5a; stroke:none;" d="M61 170L61 171L64 171L61 170z"/>
<path style="fill:#378cb9; stroke:none;" d="M64 170L65 192L87 192L87 187L70 187L70 170L64 170M76 170L76 182L87 182L87 170L76 170M263 170L263 182L273 182L273 170L263 170M278 187L263 187L263 192L284 192L284 170C275.496 170.663 278 180.528 278 187z"/>
<path style="fill:#d48c5a; stroke:none;" d="M284 170L284 171L289 171L284 170z"/>
<path style="fill:#378cb9; stroke:none;" d="M60 171L60 196L61 196L60 171z"/>
<path style="fill:#fefefe; stroke:none;" d="M61 171L61 196L87 196L87 193L65 193L65 171L61 171M284 171L282.397 191.397L263 193L263 196L289 196L289 171L284 171z"/>
<path style="fill:#378cb9; stroke:none;" d="M289 171L289 196L290 196L289 171z"/>
<path style="fill:#d48c5a; stroke:none;" d="M92 176C92.8046 186.326 117.905 182 126 182L126 181L93 181L92 176z"/>
<path style="fill:#fefefe; stroke:none;" d="M93 176L93 181L127 181L127 176L93 176M133 176L133 181L139 181L139 176L133 176M207 176L207 181L213 181L213 176L207 176z"/>
<path style="fill:#d48c5a; stroke:none;" d="M213 176L213 181L207 181L207 182C211.164 181.863 214.832 180.823 213 176z"/>
<path style="fill:#fefefe; stroke:none;" d="M219 176L219 181L257 181L257 176L219 176z"/>
<path style="fill:#d48c5a; stroke:none;" d="M257 176L257 181L220 181L220 182L249 182C253.379 181.991 259.228 181.863 257 176z"/>
<path style="fill:#378cb9; stroke:none;" d="M92 181L93 182L92 181M126 181L127 182L126 181z"/>
<path style="fill:#d48c5a; stroke:none;" d="M133 181L133 182L139 182L133 181z"/>
<path style="fill:#378cb9; stroke:none;" d="M192 181L192 182L207 182L192 181M213 181L214 182L213 181M219 181L220 182L219 181M257 181L258 182L257 181M92 187L93 188L92 187z"/>
<path style="fill:#d48c5a; stroke:none;" d="M126 187L127 188L126 187z"/>
<path style="fill:#fefefe; stroke:none;" d="M133 187L133 224L139 224L139 187L133 187M207 187L207 224L213 224L213 187L207 187z"/>
<path style="fill:#378cb9; stroke:none;" d="M213 187L214 188L213 187z"/>
<path style="fill:#d48c5a; stroke:none;" d="M219 187L220 188L219 187z"/>
<path style="fill:#378cb9; stroke:none;" d="M257 187L258 188L257 187z"/>
<path style="fill:#d48c5a; stroke:none;" d="M92 188L92 202L93 202L92 188z"/>
<path style="fill:#378cb9; stroke:none;" d="M132 188L132 224L133 224C133 213.613 136.011 197.56 132 188z"/>
<path style="fill:#d48c5a; stroke:none;" d="M213 188L213 224L214 224C214 213.613 217.011 197.56 213 188M257 188L257 202L258 202L257 188z"/>
<path style="fill:#36ddde; stroke:none;" d="M65 192L65 193L86 193L65 192z"/>
<path style="fill:#d48c5a; stroke:none;" d="M86 192L87 193L86 192M263 192L264 193L263 192z"/>
<path style="fill:#36ddde; stroke:none;" d="M264 192L264 193L283 193L264 192z"/>
<path style="fill:#d48c5a; stroke:none;" d="M61 196L61 197L86 197L61 196z"/>
<path style="fill:#378cb9; stroke:none;" d="M86 196L87 197L86 196M263 196L264 197L263 196z"/>
<path style="fill:#d48c5a; stroke:none;" d="M264 196L264 197L289 197L264 196z"/>
<path style="fill:#378cb9; stroke:none;" d="M149 224L149 235L150 235L149 224M197 224L197 235L198 235L197 224M118 229L118 230L126 230L118 229M133 229L133 230L143 230L133 229M204 229L204 230L213 230L213 241C216.65 232.301 212.06 229.006 204 229M220 229L220 230L229 230L229 255C233.292 244.772 232.431 229.01 220 229z"/>
<path style="fill:#fefefe; stroke:none;" d="M118 230L118 255L144 255L144 252L122.603 250.397L121 230L118 230z"/>
<path style="fill:#36ddde; stroke:none;" d="M121 230C121 234.941 118.864 246.402 122.028 250.397C125.173 254.368 139.282 252 144 252L144 247L127 247L127 230L121 230M133 230L133 241L144 241L144 230L133 230M203 230L203 241L213 241L213 230L203 230M219 230L219 247L203 247L203 252L223.972 250.397L225 230L219 230z"/>
<path style="fill:#fefefe; stroke:none;" d="M225 230L223.397 250.397L203 252L203 255L229 255L229 230L225 230z"/>
<path style="fill:#d48c5a; stroke:none;" d="M149 235L149 241L150 241L149 235z"/>
<path style="fill:#fefefe; stroke:none;" d="M150 235L150 241L197 241L197 235L150 235z"/>
<path style="fill:#d48c5a; stroke:none;" d="M197 235L197 241L198 241L197 235M149 247L149 261L150 261L149 247M197 247L197 261L198 261L197 247M118 255L118 256L143 256L118 255z"/>
<path style="fill:#378cb9; stroke:none;" d="M143 255L144 256L143 255M203 255L204 256L203 255z"/>
<path style="fill:#d48c5a; stroke:none;" d="M204 255L204 256L229 256L204 255M112 261L112 262L149 262C139.202 257.889 122.649 261 112 261M198 261L198 262L235 262C225.202 257.889 208.649 261 198 261M107 332C106.22 336.02 103.676 356.447 96.1636 352.168C89.8982 348.6 97.9508 344.829 102 346C104.079 334.815 88.1796 337.439 87.2577 347.004C86.069 359.337 102.47 359.552 108.787 352.892C116.723 344.526 119.519 325.181 120 314C108.349 314.041 110.97 329.133 101.042 329.133C96.1461 329.133 95.0846 322.669 95.0193 319C94.8873 311.592 97.6014 303.445 103.185 298.343C111.609 290.646 115.314 297.85 112 306C121.606 308.174 125.681 297.23 116.895 292.573C96.9633 282.007 80.6213 307.705 84.3904 325C86.8899 336.469 98.5869 338.413 107 332M268 336L263 336L271 294C268.062 294.372 263.059 294.249 260.938 296.603C258.723 299.06 258.434 303.888 257.801 307C256.15 315.12 249.345 331.201 253.322 338.945C257.414 346.913 265.759 342.519 268 336M158 312L151 317C149.954 307.616 140.292 305.505 133.015 310.653C126.944 314.948 124.05 322.836 123.304 330C122.212 340.487 132.921 347.03 141.985 341.258C148.94 336.828 155.713 319.699 158 312M192 344L192 345C183.363 349.261 185.812 361.14 196 360.195C201.919 359.646 205.223 355.355 206.833 350C210.707 337.117 214.722 321.455 215 308L204 310C188.593 298.33 167.745 340.147 192 344M233 341L230 360L240.012 356.436L243.801 342L251 309C241.396 309 229.605 305.822 222.529 314.105C213.783 324.344 214.011 350.138 233 341z"/>
<path style="fill:#fefefe; stroke:none;" d="M144 312C138.096 314.105 129.224 329.789 135.603 335.338C142.06 340.955 144.421 324.15 144.17 321C143.921 317.883 144.612 315.068 144 312M199.166 313.801C192.744 316.086 188.858 338.139 196.806 335.338C201.963 333.52 206.347 311.246 199.166 313.801M234.985 313.89C227.826 315.79 223.98 338.05 231.935 335.338C237.032 333.6 241.333 312.206 234.985 313.89z"/>
<path style="fill:#d48c5a; stroke:none;" d="M161 328L176 328L177 323C170.383 321.044 163.38 320.655 161 328z"/>
<path style="fill:#fefefe; stroke:none;" d="M233 340L234 341L233 340M197 341L195 342L195 343L197 341M192.667 343.333L193.333 343.667L192.667 343.333M196 345C183.767 353.226 199.892 355.099 196 345z"/>
</svg>
